<?xml version="1.0" standalone="no"?>
<!DOCTYPE svg PUBLIC "-//W3C//DTD SVG 20010904//EN"
 "http://www.w3.org/TR/2001/REC-SVG-20010904/DTD/svg10.dtd">
<svg version="1.0" xmlns="http://www.w3.org/2000/svg"
 width="700.000000pt" height="700.000000pt" viewBox="0 0 700.000000 700.000000"
 preserveAspectRatio="xMidYMid meet">
<metadata>
Created by potrace 1.11, written by Peter Selinger 2001-2013
</metadata>
<g transform="translate(0.000000,700.000000) scale(0.100000,-0.100000)"
fill="#000000" stroke="none">
<path d="M3441 6973 c-20 -19 -579 -1126 -1736 -3437 -1562 -3119 -1707 -3411
-1701 -3445 3 -23 17 -46 36 -63 l30 -28 3430 0 3430 0 30 28 c19 17 33 40 36
63 6 34 -140 328 -1701 3445 -1155 2308 -1716 3418 -1736 3437 -18 17 -40 27
-59 27 -19 0 -41 -10 -59 -27z m408 -2487 c15 -8 32 -26 39 -41 9 -19 12 -202
12 -713 l0 -686 -130 -486 c-72 -267 -136 -496 -142 -508 -21 -40 -62 -54
-144 -50 -58 3 -78 8 -94 24 -15 15 -57 154 -155 520 l-135 499 0 690 c1 740
0 722 51 751 36 20 659 20 698 0z m-206 -2812 c195 -75 302 -298 236 -497 -68
-207 -292 -323 -497 -258 -207 67 -326 287 -266 492 38 129 128 222 261 269
70 25 191 22 266 -6z"/>
</g>
</svg>
