<svg width="70" height="70" viewBox="0 0 70 70" fill="none" xmlns="http://www.w3.org/2000/svg">
<path fill-rule="evenodd" clip-rule="evenodd" d="M35.904 0.566702L69.8863 68.4791C70.2339 69.1737 69.7428 70 68.9823 70H1.0177C0.257249 70 -0.233856 69.1737 0.113732 68.4791L34.096 0.566705C34.4741 -0.1889 35.5259 -0.188902 35.904 0.566702ZM39 39.3679V26C39 25.4477 38.5523 25 38 25H32C31.4477 25 31 25.4477 31 26V39.3679C31 39.4556 31.0115 39.5429 31.0343 39.6276L33.6245 49.2597C33.7419 49.6964 34.1379 50 34.5901 50H35.4099C35.8621 50 36.2581 49.6964 36.3755 49.2597L38.9657 39.6276C38.9885 39.5429 39 39.4556 39 39.3679ZM35 61C37.2091 61 39 59.2091 39 57C39 54.7909 37.2091 53 35 53C32.7909 53 31 54.7909 31 57C31 59.2091 32.7909 61 35 61Z" fill="black"/>
</svg>
